<?xml version="1.0" encoding="UTF-8"?>
<svg id="Layer_1" data-name="Layer 1" xmlns="http://www.w3.org/2000/svg" viewBox="0 0 1417.32 1417.32">
  <defs>
    <style>
      .cls-1 {
        fill: #e2e2e2;
      }

      .cls-2 {
        opacity: .18;
      }
    </style>
  </defs>
  <circle class="cls-1" cx="708.66" cy="708.66" r="708.66"/>
  <path class="cls-2" d="M736.99,470.9c-3.04,7.72-5.85,15.54-8.43,23.43-5.17,15.68-22.06,24.2-37.74,19.03-15.68-5.17-24.2-22.06-19.03-37.74h0l1.02-3.11c-59.13,14.38-103.98,62.66-113.97,122.69l-15.96,95.92-19.36,14.34c-53.73,39.86-83.79,94.19-83.79,151.26,0,112.59,118.03,209.17,268.93,209.17s268.93-96.58,268.93-209.17c0-57.07-30.06-111.4-83.79-151.2l-19.36-14.4-15.96-95.92c-10.45-62.8-58.95-112.42-121.5-124.31h0ZM699.52,408.75c7.41-14.52,15.48-28.09,24.2-40.88,21.75-31.67,46.14-55.82,73.33-72.01,14.19-8.43,32.53-3.76,40.97,10.43,8.43,14.19,3.76,32.53-10.43,40.97-19.18,11.41-37.41,29.46-54.56,54.44-3.18,4.61-6.23,9.32-9.14,14.1,79.96,21.6,139.97,87.85,153.59,169.55l11.95,72.13c66.34,49.24,107.93,120.24,107.93,199.25,0,148.51-147.13,268.93-328.69,268.93s-328.69-120.42-328.69-268.93c0-79.01,41.65-150,107.93-199.25l11.95-72.13c16.43-98.66,99.68-172.34,199.61-176.66l.06.06Z"/>
</svg>